<?xml version="1.0" encoding="utf-8"?>
<!-- Generator: Adobe Illustrator 27.9.0, SVG Export Plug-In . SVG Version: 6.00 Build 0)  -->
<svg version="1.1" id="Laag_1" xmlns="http://www.w3.org/2000/svg" xmlns:xlink="http://www.w3.org/1999/xlink" x="0px" y="0px"
	 viewBox="0 0 100 125" style="enable-background:new 0 0 100 125;" xml:space="preserve">
<style type="text/css">
	.st0{fill:#202EFE;}
</style>
<rect x="-14.7" y="50" transform="matrix(0.7071 -0.7071 0.7071 0.7071 -23.8726 43.6501)" class="st0" width="110.9" height="1.3"/>
<rect x="3.7" y="68.4" transform="matrix(0.7071 -0.7071 0.7071 0.7071 -31.518 62.1088)" class="st0" width="110.9" height="1.3"/>
<path class="st0" d="M84.2,28.6l6.5-6.5L90,21.5l-6.5,6.5l-1.4-1.4l3.2-3.2c0.1-0.1,0.1-0.2,0.1-0.3l0.5-4l0.7-0.7l-0.7-0.7
	l-0.9,0.9c-0.1,0.1-0.1,0.2-0.1,0.3l-0.5,4l-3.1,3.1l-3.3-3.3c-0.2-0.2-0.7-0.2-0.9,0L68,31.7c-0.3,0.3-0.3,0.7,0,0.9l1.5,1.5
	l-2.7,2.7c-0.1,0.1-0.1,0.2-0.1,0.3l-0.5,4L63,44.3L59.7,41c-0.3-0.3-0.7-0.3-0.9,0l-9.2,9.2c-0.1,0.1-0.2,0.3-0.2,0.5
	c0,0.2,0.1,0.3,0.2,0.5l1.5,1.5l-2.7,2.7c-0.1,0.1-0.1,0.2-0.1,0.3l-0.5,4l-3.1,3.1l-3.3-3.3c-0.2-0.2-0.7-0.2-0.9,0l-9.2,9.2
	c-0.3,0.3-0.3,0.7,0,0.9l1.5,1.5l-2.7,2.7c-0.1,0.1-0.1,0.2-0.1,0.3l-0.5,4l-3.1,3.1l-3.3-3.3c-0.3-0.3-0.7-0.3-0.9,0l-9.2,9.2
	c-0.1,0.1-0.2,0.3-0.2,0.5s0.1,0.3,0.2,0.5l1.5,1.5l-2.7,2.7c-0.1,0.1-0.1,0.2-0.1,0.3l-0.5,4l-1.3,1.3l0.7,0.7l1.4-1.4
	c0.1-0.1,0.1-0.2,0.1-0.3l0.5-4l2.6-2.6l3.2,3.2l-6.5,6.5l0.7,0.7l6.5-6.5l3.1,3.1c0.1,0.1,0.3,0.2,0.5,0.2c0.2,0,0.3-0.1,0.5-0.2
	L32,88c0.1-0.1,0.2-0.3,0.2-0.5s-0.1-0.3-0.2-0.5L28.9,84l8.3-8.3l3.1,3.1c0.1,0.1,0.3,0.2,0.5,0.2s0.3-0.1,0.5-0.2l9.2-9.2
	c0.3-0.3,0.3-0.7,0-0.9l-3.1-3.1l8.3-8.3l3.1,3.1c0.1,0.1,0.3,0.2,0.5,0.2s0.3-0.1,0.5-0.2l9.2-9.2c0.1-0.1,0.2-0.3,0.2-0.5
	s-0.1-0.3-0.2-0.5l-3.1-3.1l8.3-8.3l3.1,3.1c0.1,0.1,0.3,0.2,0.5,0.2s0.3-0.1,0.5-0.2l9.2-9.2c0.1-0.1,0.2-0.3,0.2-0.5
	c0-0.2-0.1-0.3-0.2-0.5L84.2,28.6z M22.3,95.9L14,87.6l8.3-8.3l8.3,8.3L22.3,95.9z M28.2,83.3l-1.4-1.4l3.2-3.2
	c0.1-0.1,0.1-0.2,0.1-0.3l0.5-4l2.6-2.6l3.2,3.2L28.2,83.3z M40.8,77.4l-8.3-8.3l8.3-8.3l8.3,8.3L40.8,77.4z M46.6,64.8l-1.4-1.4
	l3.2-3.2c0.1-0.1,0.1-0.2,0.1-0.3l0.5-4l2.6-2.6l3.2,3.2L46.6,64.8z M59.2,58.9l-8.3-8.3l8.3-8.3l8.3,8.3L59.2,58.9z M65.1,46.4
	L63.7,45l3.2-3.2c0.1-0.1,0.1-0.2,0.1-0.3l0.5-4l2.6-2.6l3.2,3.2L65.1,46.4z M77.7,40.5l-8.3-8.3l8.3-8.3l8.3,8.3L77.7,40.5z"/>
<path class="st0" d="M77.6,36.6c-1.2,0-2.3-0.5-3.1-1.3c-0.8-0.8-1.3-1.9-1.3-3.1c0-1.2,0.5-2.3,1.3-3.1c1.7-1.7,4.6-1.7,6.2,0
	c0.8,0.8,1.3,1.9,1.3,3.1c0,1.2-0.5,2.3-1.3,3.1C79.9,36.2,78.8,36.6,77.6,36.6z M77.6,28.8c-0.9,0-1.8,0.4-2.4,1
	c-0.6,0.6-1,1.5-1,2.4c0,0.9,0.4,1.8,1,2.4c1.3,1.3,3.6,1.3,4.8,0c0.6-0.6,1-1.5,1-2.4c0-0.9-0.4-1.8-1-2.4
	C79.4,29.2,78.5,28.8,77.6,28.8z"/>
<path class="st0" d="M59.2,55c-1.2,0-2.3-0.5-3.1-1.3c-0.8-0.8-1.3-1.9-1.3-3.1c0-1.2,0.5-2.3,1.3-3.1c1.7-1.7,4.6-1.7,6.2,0
	c0.8,0.8,1.3,1.9,1.3,3.1c0,1.2-0.5,2.3-1.3,3.1C61.5,54.6,60.4,55,59.2,55z M59.2,47.2c-0.9,0-1.8,0.4-2.4,1c-0.6,0.6-1,1.5-1,2.4
	s0.4,1.8,1,2.4c1.3,1.3,3.6,1.3,4.8,0c0.6-0.6,1-1.5,1-2.4c0-0.9-0.4-1.8-1-2.4C61,47.6,60.1,47.2,59.2,47.2z"/>
<path class="st0" d="M40.8,73.5c-1.2,0-2.3-0.5-3.1-1.3c-0.8-0.8-1.3-1.9-1.3-3.1c0-1.2,0.5-2.3,1.3-3.1c1.7-1.7,4.6-1.7,6.2,0
	c0.8,0.8,1.3,1.9,1.3,3.1c0,1.2-0.5,2.3-1.3,3.1C43,73,41.9,73.5,40.8,73.5z M40.8,65.7c-0.9,0-1.8,0.4-2.4,1c-0.6,0.6-1,1.5-1,2.4
	c0,0.9,0.4,1.8,1,2.4c1.3,1.3,3.6,1.3,4.8,0c0.6-0.6,1-1.5,1-2.4c0-0.9-0.4-1.8-1-2.4C42.5,66,41.7,65.7,40.8,65.7z"/>
<path class="st0" d="M22.3,92c-1.2,0-2.3-0.5-3.1-1.3c-1.7-1.7-1.7-4.5,0-6.2c1.7-1.7,4.6-1.7,6.2,0c1.7,1.7,1.7,4.5,0,6.2
	C24.6,91.5,23.5,92,22.3,92z M22.3,84.1c-0.9,0-1.8,0.4-2.4,1c-1.3,1.3-1.3,3.5,0,4.8c1.3,1.3,3.6,1.3,4.8,0c1.3-1.3,1.3-3.5,0-4.8
	C24.1,84.5,23.2,84.1,22.3,84.1z"/>
</svg>
